<?xml version="1.0" encoding="UTF-8" standalone="no"?>
<svg
   id="svg"
   version="1.1"
   width="400"
   height="400"
   viewBox="0 0 400 400"
   sodipodi:docname="Image to Vector.svg"
   inkscape:version="1.2.1 (9c6d41e, 2022-07-14)"
   xmlns:inkscape="http://www.inkscape.org/namespaces/inkscape"
   xmlns:sodipodi="http://sodipodi.sourceforge.net/DTD/sodipodi-0.dtd"
   xmlns="http://www.w3.org/2000/svg"
   xmlns:svg="http://www.w3.org/2000/svg">
  <defs
     id="defs8" />
  <sodipodi:namedview
     id="namedview6"
     pagecolor="#ffffff"
     bordercolor="#000000"
     borderopacity="0.25"
     inkscape:showpageshadow="2"
     inkscape:pageopacity="0.0"
     inkscape:pagecheckerboard="0"
     inkscape:deskcolor="#d1d1d1"
     showgrid="false"
     inkscape:zoom="2.2829712"
     inkscape:cx="359.18106"
     inkscape:cy="232.81065"
     inkscape:window-width="1472"
     inkscape:window-height="921"
     inkscape:window-x="1120"
     inkscape:window-y="850"
     inkscape:window-maximized="0"
     inkscape:current-layer="svgg" />
  <g
     id="svgg">
    <path
       id="path0"
       d="M316.990 57.143 C 309.411 64.383,197.898 176.140,190.809 183.600 C 187.755 186.815,138.965 236.200,112.984 262.375 C 97.576 277.899,81.916 293.718,78.184 297.528 C 74.453 301.339,68.070 307.844,64.000 311.984 C 50.487 325.730,49.200 327.115,49.200 327.900 C 49.200 329.223,70.589 350.081,71.786 349.926 C 72.977 349.771,124.774 298.208,168.782 253.368 C 174.163 247.885,195.045 226.840,215.187 206.600 C 235.329 186.360,252.822 168.720,254.061 167.400 C 255.299 166.080,258.807 162.548,261.856 159.551 C 268.318 153.200,309.740 111.476,326.600 94.336 C 348.291 72.285,350.058 70.410,349.925 69.591 C 349.718 68.316,328.959 47.600,327.889 47.600 C 327.247 47.600,324.034 50.414,316.990 57.143 M85.400 73.593 C 80.937 74.143,77.668 76.814,75.354 81.800 L 73.870 85.000 73.964 127.868 C 74.062 172.148,74.069 172.339,75.619 175.236 C 77.095 177.993,81.577 181.355,84.800 182.123 C 85.350 182.254,103.440 182.476,125.000 182.617 L 164.200 182.872 165.865 181.736 C 169.237 179.435,181.380 167.031,182.201 165.049 C 182.613 164.053,182.706 155.790,182.659 124.200 L 182.600 84.600 181.478 82.000 C 180.158 78.940,177.639 76.401,174.135 74.600 L 171.800 73.400 129.600 73.373 C 106.390 73.359,86.500 73.458,85.400 73.593 M226.800 73.562 C 222.610 74.399,218.393 78.204,216.874 82.517 L 215.947 85.146 215.972 107.030 C 215.997 129.220,216.065 130.257,217.458 129.722 C 217.788 129.596,224.061 123.442,231.397 116.046 C 238.734 108.651,250.485 96.815,257.509 89.745 C 271.157 76.009,272.152 74.894,271.587 73.978 C 271.199 73.351,229.780 72.966,226.800 73.562 M308.506 138.900 C 300.205 147.315,289.810 157.881,285.406 162.380 C 281.003 166.879,275.187 172.721,272.481 175.363 C 268.422 179.326,267.584 180.343,267.681 181.183 L 267.800 182.200 290.877 182.303 C 313.473 182.404,313.998 182.389,316.077 181.570 C 320.112 179.979,323.718 176.020,324.804 171.986 C 325.325 170.051,325.536 124.867,325.027 124.044 C 324.375 122.989,322.834 124.376,308.506 138.900 M234.019 215.657 C 232.385 216.414,217.388 231.449,216.856 232.862 C 216.663 233.378,216.436 251.710,216.352 273.600 L 216.200 313.400 217.298 315.745 C 218.888 319.141,222.709 322.765,226.025 324.023 L 228.600 325.000 271.084 324.905 L 313.568 324.809 316.182 323.763 C 319.281 322.522,322.327 319.484,323.966 316.000 L 325.000 313.800 325.000 270.000 L 325.000 226.200 323.960 224.000 C 322.515 220.942,319.723 217.993,316.938 216.584 L 314.600 215.400 298.200 215.301 C 239.571 214.945,235.507 214.968,234.019 215.657 M83.133 215.987 C 81.450 216.502,77.661 219.174,76.552 220.628 C 73.979 224.000,74.000 223.778,74.000 248.204 C 74.000 276.384,73.384 274.941,81.891 266.700 C 98.298 250.808,131.000 217.498,131.000 216.679 L 131.000 215.800 107.600 215.730 C 94.730 215.692,83.720 215.807,83.133 215.987 M152.880 295.453 C 131.851 316.594,125.588 323.112,125.680 323.759 C 125.808 324.657,158.164 325.402,168.616 324.748 C 177.378 324.200,182.249 318.872,182.831 309.200 C 183.323 301.015,183.177 270.209,182.641 269.128 C 181.432 266.689,181.931 266.247,152.880 295.453 "
       stroke="none"
       fill="#519186"
       fill-rule="evenodd" />
  </g>
</svg>
